<?xml version="1.0" encoding="utf-8"?>
<!-- Generator: Adobe Illustrator 27.1.1, SVG Export Plug-In . SVG Version: 6.00 Build 0)  -->
<svg version="1.1" id="Calque_2" xmlns="http://www.w3.org/2000/svg" xmlns:xlink="http://www.w3.org/1999/xlink" x="0px" y="20px"
	 viewBox="0 -30 125 125" style="enable-background:new 0 0 125 125;filter: drop-shadow(0px 10px 4px rgb(0 0 0 / 0.4))" xml:space="preserve">
<style type="text/css">
	.st0{fill:url(#SVGID_1_);}
</style>
<g id="Calque_2">
		<radialGradient id="SVGID_1_" cx="31.5675" cy="31.7937" r="35.6032" gradientTransform="matrix(0.9722 0 0 0.9722 6.6434 5.4259)" gradientUnits="userSpaceOnUse">
		<stop  offset="0" style="stop-color:#FFFFFF"/>
		<stop  offset="1" style="stop-color:#CBCED1"/>
	</radialGradient>
	<circle class="st0" cx="37.3" cy="36.3" r="34.6"/>
</g>
<g id="att-sa">
	<g>
		<path class="st1" d="M25.5,13.6l4.2,17.6h-7.5l-0.4-3.2h-2.6l-0.4,3.2h-7.6l3.7-17.6H25.5z M21.6,24.9c-0.4-2-0.7-4.5-1.1-7.4
			c-0.7,3.4-1.2,5.8-1.4,7.4H21.6z"/>
		<path class="st1" d="M43.8,13.6v3.5h-4.4v14.1h-7.3V17.2h-4.3v-3.5H43.8z"/>
		<path class="st1" d="M60.2,13.6v3.5h-4.4v14.1h-7.3V17.2h-4.3v-3.5H60.2z"/>
		<path class="st1" d="M34.6,45.6h-6.8v-1.3c0-0.6-0.1-1-0.3-1.2s-0.5-0.2-0.9-0.2c-0.4,0-0.8,0.1-1,0.3c-0.2,0.2-0.3,0.6-0.3,1
			c0,0.6,0.1,1,0.4,1.3c0.2,0.3,0.9,0.7,2.1,1.1c3.3,1.2,5.3,2.2,6.2,3c0.8,0.8,1.3,2,1.3,3.7c0,1.3-0.2,2.2-0.7,2.8
			c-0.5,0.6-1.4,1.1-2.7,1.5c-1.3,0.4-2.9,0.6-4.7,0.6c-2,0-3.6-0.2-5-0.7s-2.3-1.1-2.7-1.8c-0.4-0.7-0.6-1.7-0.6-3.1v-1.2h6.8v2.1
			c0,0.7,0.1,1.1,0.3,1.3s0.5,0.3,1,0.3s0.9-0.1,1.1-0.4s0.4-0.6,0.4-1.1c0-1-0.2-1.7-0.7-2c-0.5-0.3-1.6-0.9-3.4-1.6
			c-1.8-0.8-3-1.3-3.6-1.6c-0.6-0.3-1.1-0.8-1.5-1.4c-0.4-0.6-0.6-1.4-0.6-2.3c0-1.3,0.3-2.3,0.8-3s1.4-1.1,2.7-1.5
			c1.2-0.4,2.7-0.5,4.5-0.5c1.9,0,3.5,0.2,4.9,0.6c1.3,0.4,2.2,0.9,2.7,1.4c0.4,0.6,0.7,1.6,0.7,3V45.6z"/>
		<path class="st1" d="M50.2,40.3l4.2,17.6h-7.5l-0.4-3.2h-2.6l-0.4,3.2h-7.6l3.7-17.6H50.2z M46.3,51.6c-0.4-2-0.7-4.5-1.1-7.4
			c-0.7,3.4-1.2,5.8-1.4,7.4H46.3z"/>
	</g>
</g>

</svg>

